<svg width="24" height="24" viewBox="0 0 24 24" fill="none" xmlns="http://www.w3.org/2000/svg">
<path fill-rule="evenodd" clip-rule="evenodd" d="M10.6 2.66667H24V4H10.6C10.2911 5.52149 8.94597 6.66667 7.33333 6.66667C5.72069 6.66667 4.37553 5.52149 4.06668 4H0V2.66667H4.06668C4.37553 1.14517 5.7207 0 7.33333 0C8.94597 0 10.2911 1.14517 10.6 2.66667ZM7.33333 5.33333C8.4379 5.33333 9.33333 4.4379 9.33333 3.33333C9.33333 2.22876 8.4379 1.33333 7.33333 1.33333C6.22876 1.33333 5.33333 2.22876 5.33333 3.33333C5.33333 4.4379 6.22876 5.33333 7.33333 5.33333Z" fill="white"/>
<path fill-rule="evenodd" clip-rule="evenodd" d="M7.33333 24C9.17428 24 10.6667 22.5076 10.6667 20.6667C10.6667 18.8257 9.17428 17.3333 7.33333 17.3333C5.72069 17.3333 4.37552 18.4785 4.06668 20H0V21.3333H4.06668C4.37552 22.8548 5.72069 24 7.33333 24ZM7.33333 22.6667C8.4379 22.6667 9.33333 21.7712 9.33333 20.6667C9.33333 19.5621 8.4379 18.6667 7.33333 18.6667C6.22877 18.6667 5.33333 19.5621 5.33333 20.6667C5.33333 21.7712 6.22877 22.6667 7.33333 22.6667Z" fill="white"/>
<path fill-rule="evenodd" clip-rule="evenodd" d="M18.6 12.6667C18.2911 14.1882 16.946 15.3333 15.3333 15.3333C13.4924 15.3333 12 13.8409 12 12C12 10.1591 13.4924 8.66667 15.3333 8.66667C16.946 8.66667 18.2911 9.81184 18.6 11.3333H24V12.6667H18.6ZM17.3333 12C17.3333 13.1046 16.4379 14 15.3333 14C14.2288 14 13.3333 13.1046 13.3333 12C13.3333 10.8954 14.2288 10 15.3333 10C16.4379 10 17.3333 10.8954 17.3333 12Z" fill="white"/>
<path d="M0 11.3333H12.6667V12.6667H0V11.3333Z" fill="white"/>
<path d="M10 20H24V21.3333H10V20Z" fill="white"/>
</svg>
